<svg width="16" height="18" viewBox="0 0 16 18" fill="none" xmlns="http://www.w3.org/2000/svg">
<path fill-rule="evenodd" clip-rule="evenodd" d="M4.01592 1.38454C4.01592 0.619806 4.6538 0 5.44084 0H10.1045C10.8916 0 11.5296 0.619806 11.5296 1.38454V1.63627H15.0273C15.3135 1.63627 15.5455 1.86167 15.5455 2.13988C15.5455 2.41795 15.3135 2.64333 15.0273 2.64333H0.518139C0.231951 2.64333 0 2.41794 0 2.13988C0 1.86166 0.23197 1.63627 0.518139 1.63627H4.01599L4.01592 1.38454ZM10.7523 1.38454V1.63627H4.7932V1.38454C4.7932 1.03698 5.0832 0.755183 5.44091 0.755183H10.1046C10.4623 0.755183 10.7523 1.03696 10.7523 1.38454H10.7523ZM1.29542 2.89509H14.25L12.9942 17.5384C12.9718 17.7994 12.7473 18 12.4776 18H3.06768C2.7982 18 2.5737 17.7994 2.55127 17.5384L1.29542 2.89509ZM3.58098 7.36211C3.5527 7.01569 3.81881 6.71241 4.17535 6.68493C4.53202 6.65745 4.84399 6.91617 4.87228 7.2626L5.48702 14.7915C5.5153 15.138 5.24904 15.4412 4.8925 15.4687C4.53583 15.4961 4.22386 15.2376 4.19557 14.891L3.58098 7.36211ZM11.37 6.68493C11.7266 6.71241 11.9928 7.01569 11.9645 7.36211L11.3499 14.891C11.3216 15.2375 11.0095 15.4961 10.653 15.4687C10.2963 15.4412 10.0302 15.138 10.0584 14.7915L10.673 7.2626C10.7013 6.91618 11.0134 6.65745 11.37 6.68493ZM8.55012 7.30062C8.55012 6.95291 8.26013 6.67112 7.90226 6.67112C7.54456 6.67112 7.25455 6.9529 7.25455 7.30062V14.8532C7.25455 15.2007 7.54455 15.4825 7.90226 15.4825C8.26011 15.4825 8.55012 15.2008 8.55012 14.8532V7.30062Z" fill="#363636"/>
</svg>
