<svg width="17" height="22" viewBox="0 0 17 22" fill="none" xmlns="http://www.w3.org/2000/svg">
<path d="M16.9931 6.75373H16.8656L16.9931 6.73594V6.73576C16.9766 6.60821 16.9193 6.48921 16.8298 6.39653L11.5226 1.09206C11.4933 1.06218 11.4609 1.03567 11.4257 1.0129L11.4002 0.997601C11.373 0.98088 11.3449 0.965581 11.3161 0.951706L11.2702 0.938898C11.2464 0.928581 11.2216 0.920931 11.1962 0.91595C11.1551 0.907945 11.1133 0.903676 11.0713 0.90332H2.55357C2.20153 0.90332 1.91602 1.18865 1.91602 1.54088V8.39597C1.91602 8.74801 2.20153 9.03353 2.55357 9.03353C2.90579 9.03353 3.19113 8.74801 3.19113 8.39597V2.18617H10.4338L10.4339 6.8121C10.4352 7.16272 10.7184 7.44697 11.0688 7.44965L15.7257 7.47509V19.8209H3.19135V18.834C3.19135 18.4819 2.90602 18.1964 2.55379 18.1964C2.20175 18.1964 1.91624 18.4819 1.91624 18.834V20.4585C1.91624 20.6276 1.98348 20.7897 2.10302 20.9092C2.22257 21.029 2.3848 21.096 2.55379 21.096H16.3633C16.5323 21.096 16.6945 21.029 16.814 20.9092C16.9336 20.7897 17.0008 20.6276 17.0008 20.4585V6.84027C17.0006 6.81127 16.9981 6.7821 16.9932 6.75364L16.9931 6.75373ZM11.7092 6.17738V3.08906L14.8153 6.19268L11.7092 6.17738Z" fill="#E00000"/>
<path d="M7.62055 12.7493C7.57697 12.6646 7.5019 12.6006 7.41153 12.5709C7.28203 12.5307 7.14666 12.5126 7.0111 12.5174H6.58008V14.7284H7.0111C7.20838 14.7469 7.40424 14.68 7.5492 14.5448C7.66892 14.3831 7.73403 14.1874 7.73527 13.9862V13.5272C7.73669 13.3705 7.72976 13.214 7.71499 13.0579C7.70289 12.9501 7.67089 12.8456 7.62055 12.7493Z" fill="#E00000"/>
<path d="M4.03564 12.5074H3.5V13.7036H4.03564C4.36722 13.7036 4.53034 13.4995 4.53034 13.0788V13.0786C4.54706 12.9228 4.50721 12.7663 4.41809 12.6375C4.31562 12.5403 4.17599 12.493 4.03564 12.5074Z" fill="#E00000"/>
<path d="M13.5139 9.79883H0.637556C0.285511 9.79883 0 10.0842 0 10.4364V16.7942C0 16.9634 0.0672436 17.1254 0.186785 17.2451C0.306327 17.3647 0.468563 17.4317 0.637556 17.4317H13.5139C13.6829 17.4317 13.8451 17.3647 13.9647 17.2451C14.0842 17.1254 14.1515 16.9634 14.1515 16.7942V10.4364C14.1515 10.2672 14.0842 10.1052 13.9647 9.98544C13.8451 9.86589 13.6829 9.79883 13.5139 9.79883ZM5.01666 14.0654C4.75374 14.3101 4.40096 14.4348 4.04252 14.4096H3.50173V15.4449L2.6909 15.445V11.8033H4.04252C4.91223 11.8033 5.35074 12.2343 5.35074 13.0784C5.37404 13.4386 5.25396 13.7933 5.01666 14.0654ZM8.50026 14.3713C8.46468 14.5777 8.38944 14.7751 8.27843 14.9529C8.16174 15.1274 7.99167 15.2599 7.79385 15.3302C7.53893 15.4141 7.27137 15.4529 7.00332 15.4451H5.76897V11.8033H7.01097C7.26962 11.7971 7.52758 11.8307 7.77609 11.9028C7.9691 11.9595 8.13898 12.0766 8.26049 12.2368C8.37807 12.3969 8.4599 12.5805 8.50028 12.7749C8.54814 13.0355 8.56948 13.3004 8.56397 13.5655C8.56735 13.8355 8.546 14.1052 8.50028 14.3713L8.50026 14.3713ZM11.4635 12.5174H9.91555V13.4737H11.1907V14.1902H9.91555V15.4449L9.10471 15.4451V11.8033H11.4637L11.4635 12.5174Z" fill="#E00000"/>
</svg>
